<?xml version="1.0" encoding="utf-8"?>
<!-- Generator: Adobe Illustrator 23.0.1, SVG Export Plug-In . SVG Version: 6.00 Build 0)  -->
<svg version="1.1" id="Ebene_1" xmlns="http://www.w3.org/2000/svg" xmlns:xlink="http://www.w3.org/1999/xlink" x="0px" y="0px"
	 viewBox="0 0 16 16" style="enable-background:new 0 0 16 16;" xml:space="preserve">
<style type="text/css">
	.st0{fill:#EDA821;}
</style>
<path class="st0" d="M14.7,6.3c-1.1-1.4-2.6-2.7-4.7-4l0,0C8,1.1,6.1,0.5,4.4,0.2C3.3,0,2.8,0.2,2.6,0.3C2.3,0.5,1.9,0.8,1.5,1.9
	c-0.6,1.7-1,3.7-1,6.1v0c0,2.4,0.4,4.4,1,6.1c0.4,1,0.8,1.4,1.1,1.5c0.2,0.1,0.7,0.3,1.8,0.2c1.7-0.3,3.6-1,5.7-2.2l0,0
	c2-1.2,3.6-2.6,4.7-4c0.7-0.9,0.8-1.4,0.8-1.7C15.5,7.7,15.4,7.2,14.7,6.3"/>
</svg>
